<svg width="370" height="508" viewBox="0 0 370 508" fill="none" xmlns="http://www.w3.org/2000/svg">
<path d="M240.076 118.339L240.098 118.364L240.12 118.389C241.273 119.713 242.422 121.032 243.568 122.347C266.24 148.362 287.548 172.811 305.358 199.865L305.367 199.878L305.376 199.891C323.907 227.963 337.114 256.719 342.112 287.903C347.621 322.394 345.199 352.735 335.288 379.217C325.416 405.594 307.566 429.624 279.872 450.789L279.858 450.8L279.844 450.811C248.73 474.659 213.012 484.878 173.638 481.311C110.228 475.527 66.0522 444.024 38.5746 386.675L38.5743 386.674C26.636 361.759 23.2876 334.459 25.7642 304.676L25.7654 304.662L25.7666 304.647C29.3774 260.598 46.5231 221.126 73.4663 184.632C90.4145 161.697 108.353 139.646 126.727 117.057C132.083 110.474 137.476 103.844 142.892 97.1344C142.893 97.133 142.894 97.1317 142.895 97.1303C156.032 80.8885 169.355 64.0173 181.77 46.0749C199.221 71.1916 219.062 94.0886 237.907 115.836C238.632 116.672 239.355 117.506 240.076 118.339Z" stroke="url(#paint0_linear_1543_1760)" stroke-width="50"/>
<defs>
<linearGradient id="paint0_linear_1543_1760" x1="328" y1="160.004" x2="-29.5" y2="339.004" gradientUnits="userSpaceOnUse">
<stop stop-color="#6EB2E7" stop-opacity="0.6"/>
<stop offset="1" stop-color="#016FAD" stop-opacity="0.24"/>
</linearGradient>
</defs>
</svg>
