<svg width="107" height="106" viewBox="0 0 107 106" fill="none" xmlns="http://www.w3.org/2000/svg">
<path d="M69.7939 40.6393C66.1462 39.3025 62.8817 39.5769 61.7055 39.8812L63.6483 40.6852C65.1417 41.447 68.3982 42.9959 69.4767 43.097C70.8247 43.2233 79.1907 47.1166 81.2128 47.3061C82.8305 47.4578 83.8957 45.8994 84.2261 45.1013L78.8338 44.5959C76.1377 44.3431 74.3535 42.3105 69.7939 40.6393Z" fill="#03ABE0"/>
<path d="M72.9934 32.37L69.1395 30.0151" stroke="#9E9E9E" stroke-width="0.5" stroke-linecap="round" stroke-linejoin="round"/>
<path d="M63.0983 40.7372L69.8595 43.9215C69.8595 43.9215 71.6082 44.1896 74.2586 45.4178C76.9091 46.646 82.9639 49.6871 82.9639 49.6871L84.2908 48.7469L85.7765 46.2843L87.2621 43.8217L87.4427 42.2174C87.4427 42.2174 86.07 41.1618 83.6295 39.4579" stroke="#9E9E9E" stroke-linecap="round" stroke-linejoin="round"/>
<path d="M72.1908 32.8329C72.1908 32.8329 70.37 31.9551 69.8888 31.6028C69.4076 31.2505 69.0653 30.0753 69.0653 30.0753" stroke="#9E9E9E" stroke-width="0.5" stroke-linecap="round" stroke-linejoin="round"/>
<path d="M63.1092 40.7889C63.1877 40.8048 64.8092 40.6162 65.5845 41.1179C66.4383 41.6356 70.3548 43.3769 70.3548 43.3769C70.3548 43.3769 72.6861 43.9353 76.7942 45.8878C79.8917 47.2908 80.5886 47.7767 80.5886 47.7767C80.5886 47.7767 82.1136 48.258 84.03 45.1126C85.9463 41.9671 84.4304 41.143 84.4304 41.143C84.4304 41.143 80.2529 38.8317 78.6457 37.7305" stroke="#9E9E9E" stroke-width="0.5" stroke-linecap="round" stroke-linejoin="round"/>
<path d="M66.9454 35.7211C68.6732 32.8521 69.6655 30.2995 69.1619 30.0196C68.6583 29.7397 66.8494 31.8385 65.1217 34.7075C63.3939 37.5765 62.4015 40.1291 62.9052 40.409C63.4088 40.6889 65.2177 38.5901 66.9454 35.7211Z" stroke="#9E9E9E" stroke-width="0.5" stroke-linecap="round" stroke-linejoin="round"/>
<path d="M69.7023 30.5809C70.1695 30.8395 69.2061 33.3292 67.5396 36.1634C65.8731 38.9975 64.1725 41.0919 63.6531 40.7411C63.1859 40.4825 64.0971 37.9006 65.7432 35.1437C67.4097 32.3095 69.1828 30.2301 69.7023 30.5809Z" stroke="#9E9E9E" stroke-width="0.5" stroke-linecap="round" stroke-linejoin="round"/>
<path d="M17.5764 88.6623C17.7766 85.9126 18.0353 83.2575 18.3136 80.5244C18.6514 77.2291 19.009 73.8558 20.1469 70.6484C21.0888 67.8921 22.4012 65.2967 23.8696 62.7344C25.7492 59.5204 27.9992 56.4672 30.4637 53.5418C31.6372 52.1487 32.4403 50.5948 32.8925 48.802C33.5216 46.3078 32.6663 44.4835 30.3848 43.4237C28.6884 42.6525 27.2266 41.6027 25.9995 40.2742C25.8631 40.1631 25.6487 40.0354 25.551 40.0968C24.0278 40.5943 22.641 41.2029 21.5848 42.4566C20.4113 43.8497 20.2325 45.5363 20.4832 47.15C20.7714 49.5929 21.3331 51.9296 21.719 54.3112C22.2014 57.2881 22.3519 60.2766 21.8389 63.2883C21.3069 66.0496 20.3263 68.6334 18.8191 71.0232C18.5254 71.5356 18.1537 72.0315 17.7819 72.5274C18.0012 70.0281 18.6107 67.6118 17.9907 65.1805C17.7457 71.0414 15.6087 76.2538 12.1065 81.0118C12.3436 79.4197 13.1074 78.0217 12.8763 76.3301C12.5593 78.8907 10.6638 80.2124 8.70988 81.4396C9.17991 80.5541 9.80601 79.7016 10.0419 78.7663C10.5918 76.9122 11.0637 75.0414 11.3991 73.0596C11.9128 69.7195 11.4119 66.1638 10.9891 62.6247C10.567 58.7572 10.3985 54.8615 10.7377 50.9095C11.0362 47.7701 11.5689 44.6804 12.9016 41.6787C14.7436 37.6354 17.715 34.982 22.7306 34.9804C22.6919 34.8079 22.6729 34.5575 22.6342 34.385C21.7813 31.2473 21.9238 28.0747 22.7299 24.8789C24.1842 19.4392 27.4314 15.3662 32.2768 12.454C35.4811 10.5071 38.957 9.43913 42.5865 9.71781C44.3622 9.84886 46.0998 9.47906 47.8368 9.43763C50.1594 9.35641 52.5404 9.36973 54.764 10.0066C57.1634 10.5987 59.2298 11.8592 60.299 14.1395C61.2127 16.0584 61.209 18.0286 60.8342 20.1663C60.7353 20.8844 60.4804 21.5693 60.2837 22.3488C59.622 21.3869 59.0186 20.5195 58.3372 19.6356C58.2591 19.619 58.2395 19.6969 58.1614 19.6803C58.5688 20.9988 59.4254 22.1664 59.2663 23.775C58.838 23.1913 58.5461 22.7186 58.2542 22.2459C58.3298 23.576 58.4054 24.9061 58.5591 26.2527C58.5972 26.7536 58.8497 27.3821 59.2393 27.7934C60.408 29.0273 61.694 30.1219 62.9604 31.2945C63.8956 32.1502 63.855 32.9629 62.8775 33.9049C62.5647 34.1669 62.2716 34.351 61.9589 34.613C61.0403 35.3211 60.9801 36.2117 61.9743 36.8336C62.2668 36.9779 62.6176 37.2167 62.6563 37.3892C62.6164 37.8735 62.4204 38.3246 62.3024 38.7923C62.2435 39.0261 61.9504 39.2102 61.7353 39.4108C61.8717 39.522 62.0081 39.6331 62.0665 39.7276C62.2613 39.9333 62.4954 39.983 62.8469 39.8935M83.5954 48.9025C83.3988 49.682 84.7138 56.203 85.413 57.9941C86.9867 61.8599 88.658 65.6644 90.0756 69.4971C91.0077 71.9947 91.6665 74.5985 91.4078 77.2536C91.2678 79.1127 90.7375 80.8889 90.3634 82.6983C90.2847 83.0101 81.0074 86.8691 72.4402 86.6085C67.3465 86.5935 60.3407 86.3363 55.4049 85.3694M62.7879 40.1273C62.8831 41.3794 62.8635 41.4574 61.9062 41.993C61.6328 42.0992 61.398 42.3778 61.261 42.595C60.85 43.2468 61.0245 43.8588 61.0233 44.5155C61.1001 45.1888 61.1572 45.9401 61.0196 46.4857C60.4703 48.0115 59.2003 48.8092 57.4246 48.6781C55.8049 48.5802 54.1465 48.3099 52.4685 48.1175C51.5124 47.9964 51.454 47.9019 50.984 48.7875C50.1416 50.4973 49.2796 52.2851 48.3592 53.9783C47.6932 55.315 46.8711 56.6185 46.7513 58.0713C46.6321 59.1957 46.8644 60.2306 47.7609 60.9139C49.6706 62.4695 51.678 63.9638 53.5877 65.5195C55.7118 67.2028 57.8747 69.0587 60.3705 70.2462C62.2815 71.1451 64.2317 71.8881 66.2016 72.5532C69.1466 73.5897 72.19 74.2366 75.3519 74.0874C76.3473 74.0526 77.2843 73.9232 78.2213 73.7939C78.1647 72.7142 78.0689 71.7905 77.9927 70.7888C77.6116 65.7803 77.953 50.0849 72.7837 48.7398C71.4768 48.3799 69.3152 45.8673 66.8199 44.3514C66.2546 43.9849 63.4466 42.7311 63.8773 42.0014C64.367 41.0378 65.4404 41.0196 66.63 41.5188" stroke="#9E9E9E" stroke-linecap="round" stroke-linejoin="round"/>
<path d="M52.9507 76.5835C54.1303 80.1137 56.4294 87.7343 56.1885 89.9753" stroke="#9E9E9E"/>
<path d="M39.6207 32.454C39.3282 31.9806 38.8005 31.7863 38.2526 31.9988C37.4505 32.2396 37.1163 33.2378 37.0954 33.9736C37.132 35.4618 37.9313 36.8654 39.2205 37.6328C39.7285 37.9053 40.2561 38.0997 40.6662 38.4336C40.9396 38.6561 41.1736 39.0349 41.5252 39.2741C42.0916 39.6412 42.9523 39.4951 43.4226 38.9371" stroke="#9E9E9E" stroke-linecap="round" stroke-linejoin="round"/>
<path d="M37.5158 37.5292C37.1827 41.0962 35.552 44.5433 33.0355 47.1511" stroke="#9E9E9E" stroke-linecap="round" stroke-linejoin="round"/>
<path d="M39.672 32.0201C39.9418 32.895 40.9693 33.0319 41.6861 33.4296C41.6483 32.9311 41.591 32.5102 41.6307 32.0281C41.9982 32.5151 42.4432 33.0185 42.9854 33.4608C42.9091 32.7906 42.7553 32.1039 42.6791 31.4337C42.9117 31.4832 43.1443 31.5327 43.3769 31.5822C44.9322 29.6242 46.2165 27.4451 47.055 25.0894C47.3476 24.2524 47.6596 23.3378 48.3203 22.6609C48.7673 22.1838 49.4274 21.8338 49.9903 21.5448C51.5626 20.8167 53.232 20.0274 54.8798 20.2963" stroke="#9E9E9E" stroke-linecap="round" stroke-linejoin="round"/>
<path d="M56.013 26.4262C53.631 26.4128 51.2074 27.8692 50.0906 30.0141" stroke="#9E9E9E" stroke-linecap="round" stroke-linejoin="round"/>
<path d="M21.5352 33.5702C21.6291 35.1414 22.2846 36.7505 23.2894 37.9441" stroke="#9E9E9E" stroke-linecap="round" stroke-linejoin="round"/>
<path d="M28.2484 55.363C33.5888 58.9402 40.2217 60.3098 46.6333 59.1391" stroke="#9E9E9E" stroke-width="0.5" stroke-linecap="round" stroke-linejoin="round"/>
<path d="M27.3932 57.6829C32.133 61.242 41.2821 63.232 47.5899 60.4196" stroke="#9E9E9E" stroke-width="0.5" stroke-linecap="round" stroke-linejoin="round"/>
<path d="M56.2363 28.7836C55.4367 29.678 54.4428 30.3673 53.3324 30.8681" stroke="#9E9E9E" stroke-linecap="round" stroke-linejoin="round"/>
<path d="M75.3524 33.518C75.1831 33.2301 75.0138 32.9422 74.7881 32.5583C74.7317 32.4623 74.7317 32.4623 74.6752 32.3664C74.5973 32.3506 74.5409 32.2547 74.4629 32.2389C74.1726 32.0957 73.7828 32.017 73.428 32.1145C73.151 32.2278 72.9306 32.437 72.6321 32.6304C72.4332 32.7594 72.3471 33.0803 72.5379 33.288C72.7287 33.4956 73.019 33.6388 73.2313 33.7663C73.6775 33.9409 74.2878 33.8104 74.6293 33.4565" stroke="#9E9E9E" stroke-linecap="round" stroke-linejoin="round"/>
<path d="M81.3402 37.8018C81.2268 37.6072 81.1352 37.3311 81.1003 37.1524C81.0437 37.0551 80.987 36.9578 80.9303 36.8604C80.7953 36.7472 80.6385 36.7154 80.4817 36.6836C79.776 36.5405 78.992 36.3815 78.2863 36.2384C78.2079 36.2225 78.1295 36.2066 78.0511 36.1907C77.9727 36.1748 77.8725 36.2404 77.8508 36.3218C77.2499 36.7149 76.514 36.9947 75.8215 37.1118C75.7431 37.0959 75.643 37.1614 75.6212 37.2428C75.5995 37.3242 75.5995 37.3242 75.6561 37.4215C75.726 37.779 75.896 38.0709 76.1661 38.2974C76.5713 38.637 77.0635 38.651 77.5774 38.5836C78.0913 38.5161 78.5703 38.27 78.9709 38.0079" stroke="#9E9E9E" stroke-linecap="round" stroke-linejoin="round"/>
<path d="M79.1367 35.9596C78.7321 35.6213 78.9272 34.8917 78.6009 34.5693C78.4095 34.3596 78.1747 34.3121 77.9398 34.2645C77.1571 34.106 76.4526 33.9634 75.6916 33.7238L75.6133 33.708C75.535 33.6921 75.4351 33.7573 75.4134 33.8384C74.8703 34.3266 74.3488 34.7337 73.6925 35.0281L73.5925 35.0933C73.5925 35.0933 73.5708 35.1744 73.5491 35.2554C73.5973 35.6924 73.9019 36.0959 74.3499 36.2721C74.7978 36.4483 75.2326 36.3654 75.7107 36.1204C76.1671 35.9564 76.5669 35.6956 76.9667 35.4347" stroke="#9E9E9E" stroke-linecap="round" stroke-linejoin="round"/>
<path d="M85.3058 41.172C85.5832 41.0581 85.7692 40.671 85.6995 40.3171C85.6082 40.0438 85.3607 39.7389 85.1481 39.611C84.9355 39.483 84.688 39.1782 84.5186 38.8891C84.4837 38.7121 84.4272 38.6157 84.2927 38.5036C84.0452 38.1987 83.6117 38.281 83.2562 38.3791C82.8226 38.4614 82.4107 38.4631 82.0203 38.3842C81.708 38.321 81.4439 38.6924 81.5136 39.0463C81.6831 39.3354 81.8525 39.6245 82.1215 39.8488C82.6032 40.201 83.2494 40.2467 83.8823 40.0348" stroke="#9E9E9E" stroke-linecap="round" stroke-linejoin="round"/>
<path d="M21.3531 36.5215C21.3531 36.5215 13.466 37.9308 15.7932 49.7431C16.7383 54.5398 17.3052 58.0276 17.5857 60.713" stroke="#9E9E9E" stroke-width="0.5" stroke-linecap="round" stroke-linejoin="round"/>
</svg>
