<svg width="365" height="504" viewBox="0 0 365 504" fill="none" xmlns="http://www.w3.org/2000/svg">
<path d="M141.273 96.5877C154.122 80.58 167.154 63.9553 179.314 46.2868C196.454 71.0753 215.902 93.6909 234.373 115.171C235.088 116.003 235.802 116.832 236.514 117.661L236.536 117.686L236.558 117.711C237.694 119.027 238.828 120.337 239.958 121.644C262.325 147.506 283.337 171.802 300.901 198.687L300.91 198.7L300.919 198.713C319.191 226.606 332.219 255.187 337.151 286.191C347.807 353.419 328.989 407.103 275.811 448.058L275.797 448.069L275.783 448.079C245.159 471.734 210.042 481.847 171.34 478.314C108.994 472.584 65.4903 441.384 38.3901 384.387L38.3899 384.387C26.6159 359.625 23.3101 332.483 25.754 302.867L25.7552 302.853L25.7564 302.838C29.3189 259.043 46.233 219.815 72.7931 183.559C72.7939 183.558 72.7947 183.557 72.7954 183.556C72.7968 183.554 72.7981 183.553 72.7995 183.551C89.5162 160.755 107.209 138.838 125.334 116.384C130.615 109.843 135.933 103.255 141.273 96.5877ZM15.8123 395.122L16.2834 394.898L15.8123 395.122Z" stroke="url(#paint0_linear_1529_2320)" stroke-width="50"/>
<defs>
<linearGradient id="paint0_linear_1529_2320" x1="323.568" y1="159.055" x2="-30.1809" y2="334.823" gradientUnits="userSpaceOnUse">
<stop stop-color="#4E9DD4" stop-opacity="0.38"/>
<stop offset="1" stop-color="#016FAD" stop-opacity="0.76"/>
</linearGradient>
</defs>
</svg>
