<?xml version="1.0" standalone="no"?>
<!DOCTYPE svg PUBLIC "-//W3C//DTD SVG 20010904//EN"
 "http://www.w3.org/TR/2001/REC-SVG-20010904/DTD/svg10.dtd">
<svg version="1.0" xmlns="http://www.w3.org/2000/svg"
 width="512.000000pt" height="512.000000pt" viewBox="0 0 512.000000 512.000000"
 preserveAspectRatio="xMidYMid meet">

<g transform="translate(0.000000,512.000000) scale(0.100000,-0.100000)"
fill="#000000" stroke="none">
<path d="M2442 4944 c-117 -31 -237 -114 -301 -207 -48 -71 -1932 -3814 -1953
-3880 -28 -89 -34 -216 -14 -300 45 -193 178 -328 372 -377 76 -20 115 -20
2004 -20 1349 0 1944 3 1986 11 98 18 197 70 268 141 68 68 104 129 131 223
23 79 16 255 -13 337 -26 72 -1869 3727 -1928 3824 -51 83 -151 181 -218 213
-104 51 -228 64 -334 35z m207 -329 c16 -8 38 -27 49 -42 17 -25 1242 -2445
1741 -3440 193 -386 210 -430 189 -510 -14 -57 -68 -114 -124 -131 -32 -9
-472 -12 -1955 -12 -1830 0 -1916 1 -1954 19 -90 41 -130 129 -107 237 13 62
1893 3790 1937 3841 53 60 149 77 224 38z"/>
<path d="M2495 3306 c-41 -18 -83 -69 -90 -109 -3 -18 -5 -298 -3 -624 3 -580
3 -592 24 -619 39 -52 71 -69 133 -69 48 0 64 5 95 29 68 51 66 31 66 687 0
656 2 633 -67 686 -41 31 -113 40 -158 19z"/>
<path d="M2510 1519 c-60 -12 -118 -54 -155 -114 -26 -42 -30 -58 -30 -120 0
-62 4 -78 30 -120 17 -27 50 -63 74 -80 37 -26 53 -30 119 -33 65 -2 84 1 122
21 86 45 138 144 126 241 -11 94 -92 188 -175 202 -20 3 -43 7 -51 9 -8 1 -35
-1 -60 -6z"/>
</g>
</svg>
