<svg width="87" height="110" viewBox="0 0 87 110" fill="none" xmlns="http://www.w3.org/2000/svg">
<path d="M58.3473 103.184C64.8571 99.8254 67.406 91.8669 64.0404 85.4087C60.6749 78.9505 52.6693 76.4382 46.1596 79.7973C39.6498 83.1563 37.1009 91.1148 40.4664 97.573C43.832 104.031 51.8375 106.544 58.3473 103.184Z" stroke="#979797" stroke-linecap="round" stroke-linejoin="round"/>
<path d="M57.4191 101.404C62.9374 98.5561 65.098 91.8098 62.2451 86.3353C59.3922 80.8608 52.606 78.7311 47.0878 81.5785C41.5696 84.426 39.4089 91.1722 42.2619 96.6468C45.1148 102.121 51.9009 104.251 57.4191 101.404Z" stroke="#979797" stroke-width="0.5" stroke-linecap="round" stroke-linejoin="round"/>
<path d="M55.9259 98.538C59.849 96.5137 61.3851 91.7175 59.3568 87.8255C57.3286 83.9335 52.5041 82.4194 48.581 84.4437C44.6579 86.4681 43.1218 91.2642 45.15 95.1563C47.1782 99.0483 52.0028 100.562 55.9259 98.538Z" stroke="#979797" stroke-width="0.5" stroke-linecap="round" stroke-linejoin="round"/>
<path d="M52.9393 92.807C53.6723 92.4288 53.9594 91.5328 53.5805 90.8059C53.2016 90.0789 52.3003 89.7961 51.5674 90.1743C50.8344 90.5525 50.5474 91.4485 50.9262 92.1755C51.3051 92.9025 52.2064 93.1852 52.9393 92.807Z" stroke="#979797" stroke-linecap="round" stroke-linejoin="round"/>
<path d="M65.8731 90.4885L74.3484 86.0939L75.4687 83.0695L71.7941 75.9828" stroke="#979797" stroke-linecap="round" stroke-linejoin="round"/>
<path d="M21.3217 29.5328L19.9092 30.2653L45.7114 80.0263L47.1239 79.2938L21.3217 29.5328Z" stroke="#979797" stroke-linecap="round" stroke-linejoin="round"/>
<path d="M61.1201 81.3219L31.5234 24.2431C31.5234 24.2431 27.4894 16.4631 18.2355 16.6677C10.2813 16.8825 10.2813 16.8825 10.2813 16.8825L10.2715 15.5192C10.2715 15.5192 14.7586 15.1474 19.5254 15.3147C25.1196 15.5416 29.6664 17.9733 32.6221 23.6734L62.8179 81.9077" stroke="#979797" stroke-linecap="round" stroke-linejoin="round"/>
<path d="M43.8977 48.1222L33.3113 53.6023L33.8382 54.6166L44.4246 49.1365L43.8977 48.1222Z" stroke="#979797" stroke-linecap="round" stroke-linejoin="round"/>
<path d="M52.2947 43.7683L44.9255 47.5809L45.4523 48.5944L52.8214 44.7818L52.2947 43.7683Z" stroke="#979797" stroke-linecap="round" stroke-linejoin="round"/>
<path d="M35.5498 32.023L24.9634 37.5032L25.4903 38.5175L36.0767 33.0374L35.5498 32.023Z" stroke="#979797" stroke-linecap="round" stroke-linejoin="round"/>
<path d="M43.9468 27.6691L36.5776 31.4818L37.1044 32.4953L44.4735 28.6826L43.9468 27.6691Z" stroke="#979797" stroke-linecap="round" stroke-linejoin="round"/>
<path d="M52.4851 64.6836L41.8987 70.1637L42.4256 71.178L53.012 65.6979L52.4851 64.6836Z" stroke="#979797" stroke-linecap="round" stroke-linejoin="round"/>
<path d="M60.8821 60.3296L53.5129 64.1422L54.0397 65.1557L61.4088 61.3431L60.8821 60.3296Z" stroke="#979797" stroke-linecap="round" stroke-linejoin="round"/>
<path d="M68.7664 76.6729L61.8606 80.2537L62.3798 81.255L69.2856 77.6742L68.7664 76.6729Z" stroke="#979797" stroke-linecap="round" stroke-linejoin="round"/>
<path d="M55.2291 67.3093L56.3219 66.7454C56.3219 66.7454 56.8306 66.5812 56.8709 66.6586C56.9893 66.6958 57.5814 66.8816 57.8156 66.7608C57.9717 66.6802 58.1278 66.5997 58.1278 66.5997C58.1278 66.5997 58.3243 66.5965 58.4023 66.5563C58.4804 66.516 59.2609 66.1132 59.2609 66.1132C59.2609 66.1132 59.3363 65.8778 59.4924 65.7972C59.7266 65.6764 60.9755 65.032 60.9755 65.032C60.9755 65.032 61.3684 65.0257 61.5245 64.9452C61.6806 64.8646 62.0709 64.6633 62.227 64.5827C62.3831 64.5021 62.612 63.991 62.612 63.991C62.612 63.991 63.1557 63.5139 63.1802 62.4205C63.245 61.4044 63.3103 57.5386 63.3453 57.2257C63.4207 56.9903 63.9539 55.7326 64.3441 55.5312C64.7344 55.3298 64.8905 55.2493 64.8905 55.2493L65.593 54.8868C65.593 54.8868 65.9106 55.116 65.9886 55.0757C66.0667 55.0354 67.3156 54.391 67.3156 54.391L67.512 54.3879C67.6681 54.3073 67.7435 54.0719 67.7032 53.9945L65.9706 50.8598C65.8899 50.705 65.6934 50.7081 65.5373 50.7886C65.4593 50.8289 65.4216 50.9466 65.4216 50.9466C65.4216 50.9466 64.1727 51.591 64.0946 51.6313C64.0166 51.6716 64.0219 52.0619 64.0219 52.0619L63.3194 52.4244C63.3194 52.4244 63.0852 52.5452 62.773 52.7063C62.4608 52.8674 61.0828 52.6941 60.8057 52.5423C60.5688 52.468 57.2374 50.2566 56.4436 49.6837C55.5717 49.151 54.8262 49.2409 54.8262 49.2409C54.8262 49.2409 54.2745 49.1325 54.1184 49.2131C53.9623 49.2936 53.572 49.495 53.4159 49.5755C53.2598 49.6561 53.0283 49.9721 53.0283 49.9721C53.0283 49.9721 51.7014 50.6568 51.5453 50.7373C51.3891 50.8179 51.1523 50.7436 51.1523 50.7436C51.1523 50.7436 50.4498 51.1061 50.2937 51.1866C50.1376 51.2672 50.0999 51.3849 50.0999 51.3849C50.0999 51.3849 49.9438 51.4654 49.7877 51.546C49.6316 51.6266 49.365 52.2554 49.3273 52.3731C49.2896 52.4908 48.9397 52.7696 48.9397 52.7696L48.0811 53.2127" stroke="#979797" stroke-linecap="round" stroke-linejoin="round"/>
<path d="M54.1269 67.9L50.6198 69.71C50.0743 69.9916 49.8511 70.8918 49.8511 70.8918L49.3835 71.1331L49.0744 71.4889C49.0744 71.4889 48.5288 71.7705 48.2171 71.9314C47.9833 72.052 47.6689 72.018 47.6689 72.018L46.344 72.7018L45.8791 73.138C45.0218 73.5805 43.998 73.3238 43.5951 72.5505L36.9067 59.7133C36.5037 58.94 36.8828 57.9593 37.7401 57.5168L38.3662 57.3899L39.6911 56.7062C39.6911 56.7062 39.7664 56.471 40.0002 56.3504C40.234 56.2297 40.8575 55.9079 40.8575 55.9079L41.3277 55.8615C41.3277 55.8615 41.7174 55.6604 41.7953 55.6201C41.8733 55.5799 42.6632 55.9572 43.2087 55.6757L46.7158 53.8657" stroke="#979797" stroke-linecap="round" stroke-linejoin="round"/>
<path d="M64.0994 52.1174L65.5769 54.9668" stroke="#979797" stroke-width="0.5" stroke-linecap="round" stroke-linejoin="round"/>
<path d="M65.1194 51.5883L66.5969 54.4376" stroke="#979797" stroke-width="0.5" stroke-linecap="round" stroke-linejoin="round"/>
<path d="M54.5173 50.537L59.5898 60.3194" stroke="#979797" stroke-width="0.5" stroke-linecap="round" stroke-linejoin="round"/>
<path d="M51.3784 52.1647L56.4509 61.9471" stroke="#979797" stroke-width="0.5" stroke-linecap="round" stroke-linejoin="round"/>
<path d="M40.7842 57.6578L45.8566 67.4403" stroke="#979797" stroke-width="0.5" stroke-linecap="round" stroke-linejoin="round"/>
<path d="M62.8271 83.1131L64.3884 82.3075C64.3884 82.3075 64.8971 82.1432 64.9375 82.2207C65.0559 82.2578 65.648 82.4436 65.8822 82.3228C66.0383 82.2422 66.1945 82.1617 66.1945 82.1617C66.1945 82.1617 66.391 82.1586 66.469 82.1183C66.5471 82.078 67.3277 81.6752 67.3277 81.6752C67.3277 81.6752 67.4031 81.4397 67.5593 81.3592C67.7935 81.2383 69.0425 80.5938 69.0425 80.5938C69.0425 80.5938 69.4354 80.5876 69.5916 80.507C69.7477 80.4265 70.138 80.2251 70.2941 80.1445C70.4503 80.0639 70.6792 79.5527 70.6792 79.5527C70.6792 79.5527 71.2229 79.0756 71.2474 77.982C71.3122 76.9659 71.3775 73.0996 71.4126 72.7867C71.488 72.5512 72.0212 71.2934 72.4115 71.092C72.8018 70.8906 72.9579 70.81 72.9579 70.81L73.6605 70.4475C73.6605 70.4475 73.9781 70.6767 74.0561 70.6364C74.1342 70.5962 75.3832 69.9517 75.3832 69.9517L75.5797 69.9485C75.7358 69.868 75.8112 69.6325 75.7709 69.5551L74.0381 66.4201C73.9574 66.2652 73.7609 66.2683 73.6048 66.3489C73.5267 66.3892 73.489 66.5069 73.489 66.5069C73.489 66.5069 72.24 67.1514 72.1619 67.1917C72.0838 67.232 72.0891 67.6223 72.0891 67.6223L71.3866 67.9848C71.3866 67.9848 71.1524 68.1057 70.8401 68.2668C70.5279 68.4279 69.1498 68.2546 68.8726 68.1028C68.6358 68.0285 65.304 65.8168 64.5101 65.2438C63.6381 64.711 62.8925 64.8009 62.8925 64.8009C62.8925 64.8009 62.3408 64.6926 62.1847 64.7731C62.0285 64.8537 61.6382 65.0551 61.4821 65.1357C61.326 65.2162 61.0944 65.5322 61.0944 65.5322C61.0944 65.5322 59.7673 66.217 59.6112 66.2976C59.4551 66.3781 59.2182 66.3038 59.2182 66.3038C59.2182 66.3038 58.5157 66.6663 58.3595 66.7469C58.2034 66.8275 58.1657 66.9452 58.1657 66.9452C58.1657 66.9452 58.0096 67.0258 57.8535 67.1063C57.6973 67.1869 57.4307 67.8158 57.393 67.9335C57.3553 68.0512 57.0054 68.3301 57.0054 68.3301L55.9905 68.8538" stroke="#979797" stroke-linecap="round" stroke-linejoin="round"/>
<path d="M46.5553 78.3325L44.9778 75.3034C44.5733 74.5267 44.954 73.5417 45.8148 73.0973L46.4435 72.9698L47.7738 72.2828C47.7738 72.2828 47.8494 72.0467 48.0842 71.9255C48.319 71.8043 48.945 71.481 48.945 71.481L49.4172 71.4343C49.4172 71.4343 49.8084 71.2323 49.8867 71.1919C49.9649 71.1515 50.7581 71.5304 51.3058 71.2475L54.8273 69.4292" stroke="#979797" stroke-linecap="round" stroke-linejoin="round"/>
<path d="M72.1675 67.6769L73.645 70.5263" stroke="#979797" stroke-width="0.5" stroke-linecap="round" stroke-linejoin="round"/>
<path d="M73.1875 67.1478L74.665 69.9972" stroke="#979797" stroke-width="0.5" stroke-linecap="round" stroke-linejoin="round"/>
<path d="M62.5854 66.0968L67.6579 75.8793" stroke="#979797" stroke-width="0.5" stroke-linecap="round" stroke-linejoin="round"/>
<path d="M59.4465 67.7244L64.519 77.5068" stroke="#979797" stroke-width="0.5" stroke-linecap="round" stroke-linejoin="round"/>
<path d="M48.8525 73.2178L51.528 78.3774" stroke="#979797" stroke-width="0.5" stroke-linecap="round" stroke-linejoin="round"/>
<path d="M47.3178 51.6683L48.2544 51.185C48.2544 51.185 48.7631 51.0208 48.8035 51.0982C48.9219 51.1354 49.5139 51.3212 49.7481 51.2003C49.9042 51.1198 50.0603 51.0392 50.0603 51.0392C50.0603 51.0392 50.2568 51.0361 50.3348 50.9958C50.4129 50.9555 51.1934 50.5528 51.1934 50.5528C51.1934 50.5528 51.2688 50.3173 51.425 50.2368C51.6591 50.116 52.908 49.4715 52.908 49.4715C52.908 49.4715 53.3009 49.4653 53.4571 49.3847C53.6132 49.3042 54.0034 49.1028 54.1596 49.0222C54.3157 48.9417 54.5445 48.4306 54.5445 48.4306C54.5445 48.4306 55.0883 47.9535 55.1127 46.86C55.1775 45.844 55.2428 41.9781 55.2779 41.6652C55.3533 41.4298 55.8864 40.1721 56.2767 39.9707C56.6669 39.7693 56.8231 39.6888 56.8231 39.6888L57.5256 39.3263C57.5256 39.3263 57.8431 39.5555 57.9211 39.5152C57.9992 39.4749 59.2481 38.8305 59.2481 38.8305L59.4445 38.8274C59.6007 38.7468 59.6761 38.5114 59.6357 38.434L58.1373 35.1785C58.0566 35.0236 57.8601 35.0267 57.704 35.1073C57.6259 35.1476 57.5882 35.2653 57.5882 35.2653C57.5882 35.2653 56.3393 35.9097 56.2613 35.95C56.1832 35.9903 56.1885 36.3806 56.1885 36.3806L55.486 36.7431C55.486 36.7431 55.2519 36.8639 54.9397 37.025C54.6274 37.1861 53.2495 37.0128 52.9723 36.861C52.7355 36.7867 49.4041 34.5753 48.6103 34.0023C47.7384 33.4696 46.9929 33.5595 46.9929 33.5595C46.9929 33.5595 46.2448 33.4543 46.0886 33.5348C45.9325 33.6154 45.5423 33.8168 45.3861 33.8973C45.23 33.9779 44.9985 34.2939 44.9985 34.2939C44.9985 34.2939 43.6716 34.9786 43.5155 35.0591C43.3594 35.1397 43.1225 35.0653 43.1225 35.0653C43.1225 35.0653 42.42 35.4278 42.2639 35.5084C42.1078 35.5889 42.0701 35.7067 42.0701 35.7067C42.0701 35.7067 41.914 35.7872 41.7579 35.8678C41.6018 35.9483 41.3352 36.5772 41.2975 36.6949C41.2598 36.8126 40.8722 37.2091 40.8722 37.2091L39.9355 37.6925" stroke="#979797" stroke-linecap="round" stroke-linejoin="round"/>
<path d="M46.0585 52.34L42.5515 54.15C42.0059 54.4316 41.7827 55.3318 41.7827 55.3318L41.3151 55.5731L41.006 55.9289C41.006 55.9289 40.4605 56.2105 40.1487 56.3714C39.9149 56.492 39.6005 56.4581 39.6005 56.4581L38.2757 57.1418L37.8107 57.5781C36.9534 58.0205 35.9297 57.7639 35.5268 56.9905L28.8383 44.1532C28.4354 43.3799 28.8144 42.3992 29.6717 41.9568L30.2978 41.8299L31.6227 41.1461C31.6227 41.1461 31.698 40.911 31.9318 40.7903C32.1656 40.6696 32.7891 40.3479 32.7891 40.3479L33.2594 40.3014C33.2594 40.3014 33.649 40.1003 33.727 40.0601C33.8049 40.0198 34.5948 40.3972 35.1404 40.1156L38.6474 38.3056" stroke="#979797" stroke-linecap="round" stroke-linejoin="round"/>
<path d="M56.031 36.5569L57.5085 39.4063" stroke="#979797" stroke-width="0.5" stroke-linecap="round" stroke-linejoin="round"/>
<path d="M57.051 36.0278L58.5285 38.8772" stroke="#979797" stroke-width="0.5" stroke-linecap="round" stroke-linejoin="round"/>
<path d="M46.449 34.9764L51.2019 44.1427" stroke="#979797" stroke-width="0.5" stroke-linecap="round" stroke-linejoin="round"/>
<path d="M43.3098 36.6041L48.0627 45.7704" stroke="#979797" stroke-width="0.5" stroke-linecap="round" stroke-linejoin="round"/>
<path d="M32.7158 42.0974L37.4687 51.2637" stroke="#979797" stroke-width="0.5" stroke-linecap="round" stroke-linejoin="round"/>
<path d="M31.7885 22.173L32.8032 21.6494C32.8032 21.6494 33.2312 21.3303 33.1908 21.2529C33.2285 21.1352 33.417 20.5466 33.6512 20.4257C33.8073 20.3452 33.9634 20.2646 33.9634 20.2646C33.9634 20.2646 34.0011 20.1469 34.1572 20.0664C34.3134 19.9858 35.0159 19.6233 35.0159 19.6233C35.0159 19.6233 35.2527 19.6976 35.4088 19.6171C35.5649 19.5365 36.8918 18.8518 36.8918 18.8518C36.8918 18.8518 37.1234 18.5358 37.2795 18.4553C37.4356 18.3747 37.8259 18.1733 37.982 18.0928C38.1381 18.0122 38.6898 18.1206 38.6898 18.1206C38.6898 18.1206 39.5133 17.9904 40.3072 18.5634C41.179 19.0961 44.392 21.2703 44.6692 21.4221C44.906 21.4964 46.3243 21.7472 46.6365 21.586C46.9487 21.4249 47.1829 21.3041 47.1829 21.3041L47.8854 20.9416C47.8854 20.9416 47.8801 20.5513 47.9582 20.511C48.0362 20.4708 49.2851 19.8263 49.2851 19.8263L49.4009 19.6683C49.557 19.5878 49.7938 19.6621 49.8341 19.7395L51.5667 22.8742C51.6474 23.029 51.5317 23.187 51.3756 23.2676C51.2975 23.3079 51.1791 23.2707 51.1791 23.2707C51.1791 23.2707 49.9302 23.9151 49.8522 23.9554C49.7741 23.9957 49.4566 23.7665 49.4566 23.7665L48.7541 24.129C48.7541 24.129 48.5199 24.2498 48.2077 24.4109C47.8174 24.6123 47.2439 25.7926 47.2089 26.1055C47.1738 26.4183 47.0304 30.3245 47.0437 31.3002C47.0192 32.3937 46.4755 32.8708 46.4755 32.8708C46.4755 32.8708 46.2466 33.3819 46.0905 33.4625C45.9344 33.543 45.5441 33.7444 45.388 33.825C45.2319 33.9055 44.839 33.9118 44.839 33.9118C44.839 33.9118 43.512 34.5965 43.3559 34.677C43.1998 34.7576 43.1244 34.993 43.1244 34.993C43.1244 34.993 42.4219 35.3555 42.2658 35.4361C42.1878 35.4763 41.9913 35.4795 41.9913 35.4795C41.9913 35.4795 41.8352 35.56 41.6791 35.6406C41.523 35.7211 40.8528 35.5756 40.7344 35.5384C40.616 35.5013 40.1854 35.6252 40.1854 35.6252L39.0926 36.1891" stroke="#979797" stroke-linecap="round" stroke-linejoin="round"/>
<path d="M37.9904 36.78L34.4833 38.59C33.9378 38.8716 33.7146 39.7718 33.7146 39.7718L33.247 40.0132L32.9379 40.3689C32.9379 40.3689 32.3923 40.6505 32.0806 40.8114C31.8468 40.9321 31.5324 40.8981 31.5324 40.8981L30.2075 41.5819L29.7426 42.0181C28.8853 42.4606 27.8615 42.2039 27.4586 41.4306L20.7702 28.5933C20.3673 27.82 20.7463 26.8393 21.6036 26.3968L22.2297 26.2699L23.5546 25.5861C23.5546 25.5861 23.6299 25.351 23.8637 25.2304C24.0975 25.1097 24.721 24.7879 24.721 24.7879L25.1913 24.7415C25.1913 24.7415 25.5809 24.5403 25.6589 24.5001C25.7368 24.4599 26.5267 24.8372 27.0723 24.5557L30.5014 22.7858" stroke="#979797" stroke-linecap="round" stroke-linejoin="round"/>
<path d="M47.9629 20.9972L49.4404 23.8466" stroke="#979797" stroke-width="0.5" stroke-linecap="round" stroke-linejoin="round"/>
<path d="M48.9829 20.4681L50.4604 23.3175" stroke="#979797" stroke-width="0.5" stroke-linecap="round" stroke-linejoin="round"/>
<path d="M38.3809 19.4169L42.7744 27.8901" stroke="#979797" stroke-width="0.5" stroke-linecap="round" stroke-linejoin="round"/>
<path d="M35.2419 21.0446L39.6355 29.5178" stroke="#979797" stroke-width="0.5" stroke-linecap="round" stroke-linejoin="round"/>
<path d="M24.6477 26.5378L29.0412 35.0109" stroke="#979797" stroke-width="0.5" stroke-linecap="round" stroke-linejoin="round"/>
</svg>
