<svg width="84" height="130" viewBox="0 0 84 130" fill="none" xmlns="http://www.w3.org/2000/svg">
<path d="M4.97477e-05 42.2694C4.95709e-05 46.3146 0.863005 49.5938 1.92751 49.5938C2.99202 49.5938 3.85498 46.3146 3.85498 42.2694C3.85498 38.2243 2.99203 34.9451 1.92752 34.9451C0.863006 34.9451 4.99246e-05 38.2243 4.97477e-05 42.2694Z" fill="url(#paint0_linear_1518_2919)"/>
<path d="M4.97477e-05 42.2694C4.95709e-05 46.3146 0.863005 49.5938 1.92751 49.5938C2.99202 49.5938 3.85498 46.3146 3.85498 42.2694C3.85498 38.2243 2.99203 34.9451 1.92752 34.9451C0.863006 34.9451 4.99246e-05 38.2243 4.97477e-05 42.2694Z" fill="#87A1A9" fill-opacity="0.4"/>
<path d="M30.0686 49.5938L30.0686 34.9451L1.9276 34.9451L1.9276 49.5938L30.0686 49.5938Z" fill="url(#paint1_linear_1518_2919)"/>
<path d="M30.0686 49.5938L30.0686 34.9451L1.9276 34.9451L1.9276 49.5938L30.0686 49.5938Z" fill="#87A1A9" fill-opacity="0.4"/>
<path d="M27.7221 42.1952C27.7221 46.1993 28.6146 49.4453 29.7156 49.4453C30.8167 49.4453 31.7092 46.1993 31.7092 42.1952C31.7092 38.1911 30.8167 34.9451 29.7156 34.9451C28.6146 34.9451 27.7221 38.1911 27.7221 42.1952Z" fill="url(#paint2_linear_1518_2919)"/>
<path d="M27.8543 42.1952C27.8543 46.0274 28.7173 49.134 29.7818 49.134C30.8463 49.134 31.7092 46.0274 31.7092 42.1952C31.7092 38.3629 30.8463 35.2563 29.7818 35.2563C28.7173 35.2563 27.8543 38.3629 27.8543 42.1952Z" fill="url(#paint3_linear_1518_2919)"/>
<path d="M27.8543 42.1952C27.8543 46.0274 28.7173 49.134 29.7818 49.134C30.8463 49.134 31.7092 46.0274 31.7092 42.1952C31.7092 38.3629 30.8463 35.2563 29.7818 35.2563C28.7173 35.2563 27.8543 38.3629 27.8543 42.1952Z" fill="url(#paint4_linear_1518_2919)"/>
<path d="M50.1141 130C66.8608 130 80.4367 127.109 80.4367 123.543C80.4367 119.978 66.8608 117.087 50.1141 117.087C33.3674 117.087 19.7915 119.978 19.7915 123.543C19.7915 127.109 33.3674 130 50.1141 130Z" fill="url(#paint5_linear_1518_2919)"/>
<path d="M50.1141 130C66.8608 130 80.4367 127.109 80.4367 123.543C80.4367 119.978 66.8608 117.087 50.1141 117.087C33.3674 117.087 19.7915 119.978 19.7915 123.543C19.7915 127.109 33.3674 130 50.1141 130Z" fill="url(#paint6_linear_1518_2919)" fill-opacity="0.2"/>
<path d="M78.7689 123.354H21.4592C18.5407 123.354 16.1907 120.999 16.1907 118.075V31.3106C16.1907 27.5506 19.2229 24.5122 22.9754 24.5122H77.2149C80.9673 24.5122 83.9996 27.5506 83.9996 31.3106V118.075C84.0375 120.999 81.6875 123.354 78.7689 123.354Z" fill="url(#paint7_linear_1518_2919)"/>
<path d="M50.1141 30.399C65.6048 30.399 78.1625 27.8484 78.1625 24.7021C78.1625 21.5557 65.6048 19.0051 50.1141 19.0051C34.6234 19.0051 22.0657 21.5557 22.0657 24.7021C22.0657 27.8484 34.6234 30.399 50.1141 30.399Z" fill="url(#paint8_linear_1518_2919)"/>
<path d="M50.114 26.5631C54.6147 26.5631 58.2632 25.5599 58.2632 24.3223C58.2632 23.0848 54.6147 22.0815 50.114 22.0815C45.6134 22.0815 41.9648 23.0848 41.9648 24.3223C41.9648 25.5599 45.6134 26.5631 50.114 26.5631Z" fill="url(#paint9_linear_1518_2919)"/>
<path d="M58.2632 14.8273H41.9648V24.3222H58.2632V14.8273Z" fill="url(#paint10_linear_1518_2919)"/>
<path d="M50.114 17.068C54.6147 17.068 58.2632 16.0648 58.2632 14.8272C58.2632 13.5897 54.6147 12.5864 50.114 12.5864C45.6134 12.5864 41.9648 13.5897 41.9648 14.8272C41.9648 16.0648 45.6134 17.068 50.114 17.068Z" fill="url(#paint11_linear_1518_2919)"/>
<path d="M50.1141 16.5402C54.1183 16.5402 57.3643 15.6476 57.3643 14.5466C57.3643 13.4456 54.1183 12.553 50.1141 12.553C46.11 12.553 42.864 13.4456 42.864 14.5466C42.864 15.6476 46.11 16.5402 50.1141 16.5402Z" fill="url(#paint12_linear_1518_2919)"/>
<path d="M50.1141 16.5402C54.1183 16.5402 57.3643 15.6476 57.3643 14.5466C57.3643 13.4456 54.1183 12.553 50.1141 12.553C46.11 12.553 42.864 13.4456 42.864 14.5466C42.864 15.6476 46.11 16.5402 50.1141 16.5402Z" fill="#87A1A9" fill-opacity="0.4"/>
<path d="M57.3643 2.24432H42.864V14.514H57.3643V2.24432Z" fill="url(#paint13_linear_1518_2919)"/>
<path d="M57.3643 2.24432H42.864V14.514H57.3643V2.24432Z" fill="#87A1A9" fill-opacity="0.4"/>
<path d="M50.1141 4.23789C54.1183 4.23789 57.3643 3.34534 57.3643 2.24431C57.3643 1.14329 54.1183 0.250732 50.1141 0.250732C46.11 0.250732 42.864 1.14329 42.864 2.24431C42.864 3.34534 46.11 4.23789 50.1141 4.23789Z" fill="url(#paint14_linear_1518_2919)"/>
<path d="M50.1142 4.10566C53.9464 4.10566 57.053 3.24271 57.053 2.1782C57.053 1.11369 53.9464 0.250732 50.1142 0.250732C46.2819 0.250732 43.1753 1.11369 43.1753 2.1782C43.1753 3.24271 46.2819 4.10566 50.1142 4.10566Z" fill="url(#paint15_linear_1518_2919)"/>
<path d="M50.1142 4.10566C53.9464 4.10566 57.053 3.24271 57.053 2.1782C57.053 1.11369 53.9464 0.250732 50.1142 0.250732C46.2819 0.250732 43.1753 1.11369 43.1753 2.1782C43.1753 3.24271 46.2819 4.10566 50.1142 4.10566Z" fill="url(#paint16_linear_1518_2919)"/>
<path d="M49.321 92.5967C53.4396 92.5967 56.7783 91.6786 56.7783 90.5461C56.7783 89.4137 53.4396 88.4956 49.321 88.4956C45.2025 88.4956 41.8638 89.4137 41.8638 90.5461C41.8638 91.6786 45.2025 92.5967 49.321 92.5967Z" fill="url(#paint17_linear_1518_2919)"/>
<path d="M49.321 92.5967C53.4396 92.5967 56.7783 91.6786 56.7783 90.5461C56.7783 89.4137 53.4396 88.4956 49.321 88.4956C45.2025 88.4956 41.8638 89.4137 41.8638 90.5461C41.8638 91.6786 45.2025 92.5967 49.321 92.5967Z" fill="#87A1A9" fill-opacity="0.4"/>
<path d="M77.8696 49.6379H22.3586L22.3587 116.783H77.8696L77.8696 49.6379Z" fill="url(#paint18_linear_1518_2919)"/>
<path d="M50.1141 53.2425C65.4431 53.2425 77.8696 51.548 77.8696 49.4577C77.8696 47.3674 65.4431 45.6729 50.1141 45.6729C34.7852 45.6729 22.3586 47.3674 22.3586 49.4577C22.3586 51.548 34.7852 53.2425 50.1141 53.2425Z" fill="url(#paint19_linear_1518_2919)"/>
<path d="M50.1141 53.2425C65.4431 53.2425 77.8696 51.548 77.8696 49.4577C77.8696 47.3674 65.4431 45.6729 50.1141 45.6729C34.7852 45.6729 22.3586 47.3674 22.3586 49.4577C22.3586 51.548 34.7852 53.2425 50.1141 53.2425Z" fill="white" fill-opacity="0.32"/>
<path d="M50.1141 122.29C65.4431 122.29 77.8697 119.874 77.8697 116.893C77.8697 113.913 65.4431 111.496 50.1141 111.496C34.7852 111.496 22.3586 113.913 22.3586 116.893C22.3586 119.874 34.7852 122.29 50.1141 122.29Z" fill="url(#paint20_linear_1518_2919)"/>
<defs>
<linearGradient id="paint0_linear_1518_2919" x1="1.92497" y1="34.9451" x2="1.92497" y2="49.5938" gradientUnits="userSpaceOnUse">
<stop stop-color="#BAE0FF"/>
<stop offset="0.442708" stop-color="white"/>
<stop offset="1" stop-color="#C1CCCF"/>
</linearGradient>
<linearGradient id="paint1_linear_1518_2919" x1="20.2426" y1="34.9451" x2="20.2426" y2="49.5938" gradientUnits="userSpaceOnUse">
<stop stop-color="#BAE0FF"/>
<stop offset="0.447917" stop-color="white"/>
<stop offset="1" stop-color="#C1CCCF"/>
</linearGradient>
<linearGradient id="paint2_linear_1518_2919" x1="33.3942" y1="37.9369" x2="26.7601" y2="45.642" gradientUnits="userSpaceOnUse">
<stop stop-color="#BAE0FF"/>
<stop offset="0.3191" stop-color="#EBEBEB"/>
<stop offset="1" stop-color="#E1DFDB"/>
</linearGradient>
<linearGradient id="paint3_linear_1518_2919" x1="33.3383" y1="38.1197" x2="26.9989" y2="45.5576" gradientUnits="userSpaceOnUse">
<stop stop-color="#BAE0FF"/>
<stop offset="0.3191" stop-color="#EBEBEB"/>
<stop offset="1" stop-color="#E1DFDB"/>
</linearGradient>
<linearGradient id="paint4_linear_1518_2919" x1="33.9455" y1="42.1951" x2="24.2551" y2="42.1952" gradientUnits="userSpaceOnUse">
<stop stop-color="#5F97BC" stop-opacity="0.33"/>
<stop offset="0.708333" stop-color="#103F5F"/>
</linearGradient>
<linearGradient id="paint5_linear_1518_2919" x1="16.5762" y1="123.546" x2="83.652" y2="123.546" gradientUnits="userSpaceOnUse">
<stop stop-color="#BAE0FF"/>
<stop offset="0.3191" stop-color="white"/>
<stop offset="1" stop-color="#C1CCCF"/>
</linearGradient>
<linearGradient id="paint6_linear_1518_2919" x1="50.1141" y1="135.782" x2="50.1141" y2="125.76" gradientUnits="userSpaceOnUse">
<stop/>
<stop offset="1" stop-opacity="0"/>
</linearGradient>
<linearGradient id="paint7_linear_1518_2919" x1="16.1907" y1="65.3433" x2="84.0375" y2="65.3433" gradientUnits="userSpaceOnUse">
<stop stop-color="#BAE0FF"/>
<stop offset="0.3191" stop-color="white"/>
<stop offset="1" stop-color="#C1CCCF"/>
</linearGradient>
<linearGradient id="paint8_linear_1518_2919" x1="22.0657" y1="24.705" x2="78.1625" y2="24.705" gradientUnits="userSpaceOnUse">
<stop stop-color="#BAE0FF"/>
<stop offset="0.3191" stop-color="#EBEBEB"/>
<stop offset="1" stop-color="#E1DFDB"/>
</linearGradient>
<linearGradient id="paint9_linear_1518_2919" x1="41.9648" y1="24.3253" x2="58.2632" y2="24.3253" gradientUnits="userSpaceOnUse">
<stop stop-color="#BAE0FF"/>
<stop offset="0.3191" stop-color="white"/>
<stop offset="1" stop-color="#C1CCCF"/>
</linearGradient>
<linearGradient id="paint10_linear_1518_2919" x1="41.9648" y1="19.5777" x2="58.2632" y2="19.5777" gradientUnits="userSpaceOnUse">
<stop stop-color="#BAE0FF"/>
<stop offset="0.3191" stop-color="white"/>
<stop offset="1" stop-color="#C1CCCF"/>
</linearGradient>
<linearGradient id="paint11_linear_1518_2919" x1="45.3277" y1="10.6925" x2="53.9883" y2="18.1493" gradientUnits="userSpaceOnUse">
<stop stop-color="#BAE0FF"/>
<stop offset="0.3191" stop-color="#EBEBEB"/>
<stop offset="1" stop-color="#E1DFDB"/>
</linearGradient>
<linearGradient id="paint12_linear_1518_2919" x1="42.864" y1="14.5493" x2="57.3643" y2="14.5493" gradientUnits="userSpaceOnUse">
<stop stop-color="#BAE0FF"/>
<stop offset="0.3191" stop-color="white"/>
<stop offset="1" stop-color="#C1CCCF"/>
</linearGradient>
<linearGradient id="paint13_linear_1518_2919" x1="42.864" y1="6.47064" x2="57.3643" y2="6.47064" gradientUnits="userSpaceOnUse">
<stop stop-color="#BAE0FF"/>
<stop offset="0.3191" stop-color="white"/>
<stop offset="1" stop-color="#C1CCCF"/>
</linearGradient>
<linearGradient id="paint14_linear_1518_2919" x1="45.8559" y1="-1.43425" x2="53.5609" y2="5.19991" gradientUnits="userSpaceOnUse">
<stop stop-color="#BAE0FF"/>
<stop offset="0.3191" stop-color="#EBEBEB"/>
<stop offset="1" stop-color="#E1DFDB"/>
</linearGradient>
<linearGradient id="paint15_linear_1518_2919" x1="46.0387" y1="-1.37837" x2="53.4767" y2="4.96109" gradientUnits="userSpaceOnUse">
<stop stop-color="#BAE0FF"/>
<stop offset="0.3191" stop-color="#EBEBEB"/>
<stop offset="1" stop-color="#E1DFDB"/>
</linearGradient>
<linearGradient id="paint16_linear_1518_2919" x1="50.1142" y1="-1.98552" x2="50.1142" y2="7.70491" gradientUnits="userSpaceOnUse">
<stop stop-color="#5F97BC" stop-opacity="0.33"/>
<stop offset="0.708333" stop-color="#103F5F"/>
</linearGradient>
<linearGradient id="paint17_linear_1518_2919" x1="41.8638" y1="90.5489" x2="56.7783" y2="90.5489" gradientUnits="userSpaceOnUse">
<stop stop-color="#BAE0FF"/>
<stop offset="0.3191" stop-color="white"/>
<stop offset="1" stop-color="#C1CCCF"/>
</linearGradient>
<linearGradient id="paint18_linear_1518_2919" x1="22.3586" y1="-25.0367" x2="77.8696" y2="-25.0367" gradientUnits="userSpaceOnUse">
<stop stop-color="#897960"/>
<stop offset="0.3191" stop-color="#A7967C"/>
<stop offset="1" stop-color="#817056"/>
</linearGradient>
<linearGradient id="paint19_linear_1518_2919" x1="22.3586" y1="34.3585" x2="77.8696" y2="34.3585" gradientUnits="userSpaceOnUse">
<stop stop-color="#897960"/>
<stop offset="0.3191" stop-color="#A7967C"/>
<stop offset="1" stop-color="#817056"/>
</linearGradient>
<linearGradient id="paint20_linear_1518_2919" x1="22.3586" y1="95.363" x2="77.8696" y2="95.363" gradientUnits="userSpaceOnUse">
<stop stop-color="#897960"/>
<stop offset="0.3191" stop-color="#A7967C"/>
<stop offset="1" stop-color="#817056"/>
</linearGradient>
</defs>
</svg>
