<svg width="123" height="123" viewBox="0 0 123 123" fill="none" xmlns="http://www.w3.org/2000/svg">
<g filter="url(#filter0_b_1518_2807)">
<path d="M61.5 0C64.7393 0 67.7908 1.47882 70.7719 2.88721C72.6733 3.80267 74.6216 4.7416 76.5698 5.25802C78.612 5.7979 80.842 5.98569 83.0015 6.15C86.2408 6.40821 89.574 6.68989 92.25 8.21565C94.9729 9.78836 96.8742 12.5582 98.7286 15.2576C99.9492 17.0181 101.193 18.849 102.672 20.3279C104.151 21.8067 105.982 23.0508 107.742 24.2714C110.442 26.1258 113.212 28.0271 114.784 30.75C116.334 33.426 116.592 36.7592 116.85 39.9985C117.014 42.158 117.202 44.388 117.742 46.4302C118.258 48.3784 119.197 50.3502 120.113 52.2281C121.545 55.1857 123 58.2607 123 61.5C123 64.7393 121.521 67.7908 120.113 70.7719C119.197 72.6733 118.258 74.6216 117.742 76.5698C117.202 78.612 117.014 80.842 116.85 83.0015C116.592 86.2408 116.31 89.574 114.784 92.25C113.212 94.9729 110.442 96.8742 107.742 98.7286C105.982 99.9492 104.151 101.193 102.672 102.672C101.193 104.151 99.9492 105.982 98.7286 107.742C96.8742 110.442 94.9729 113.212 92.25 114.784C89.574 116.334 86.2408 116.592 83.0015 116.85C80.842 117.014 78.612 117.202 76.5698 117.742C74.6216 118.258 72.6498 119.197 70.7719 120.113C67.8143 121.545 64.7393 123 61.5 123C58.2607 123 55.2092 121.521 52.2281 120.113C50.3267 119.197 48.3784 118.258 46.4302 117.742C44.388 117.202 42.158 117.014 39.9985 116.85C36.7592 116.592 33.426 116.31 30.75 114.784C28.0271 113.212 26.1258 110.442 24.2714 107.742C23.0508 105.982 21.8067 104.151 20.3279 102.672C18.849 101.193 17.0181 99.9492 15.2576 98.7286C12.5582 96.8742 9.78836 94.9729 8.21565 92.25C6.66641 89.574 6.40821 86.2408 6.15 83.0015C5.98569 80.842 5.7979 78.612 5.25802 76.5698C4.7416 74.6216 3.80267 72.6498 2.88721 70.7719C1.45534 67.8143 0 64.7393 0 61.5C0 58.2607 1.47882 55.2092 2.88721 52.2281C3.80267 50.3267 4.7416 48.3784 5.25802 46.4302C5.7979 44.388 5.98569 42.158 6.15 39.9985C6.40821 36.7592 6.68989 33.426 8.21565 30.75C9.78836 28.0271 12.5582 26.1258 15.2576 24.2714C17.0181 23.0508 18.849 21.8067 20.3279 20.3279C21.8067 18.849 23.0508 17.0181 24.2714 15.2576C26.1258 12.5582 28.0271 9.78836 30.75 8.21565C33.426 6.66641 36.7592 6.40821 39.9985 6.15C42.158 5.98569 44.388 5.7979 46.4302 5.25802C48.3784 4.7416 50.3502 3.80267 52.2281 2.88721C55.2092 1.47882 58.2607 0 61.5 0Z" fill="white" fill-opacity="0.76"/>
</g>
<defs>
<filter id="filter0_b_1518_2807" x="-7" y="-7" width="137" height="137" filterUnits="userSpaceOnUse" color-interpolation-filters="sRGB">
<feFlood flood-opacity="0" result="BackgroundImageFix"/>
<feGaussianBlur in="BackgroundImage" stdDeviation="3.5"/>
<feComposite in2="SourceAlpha" operator="in" result="effect1_backgroundBlur_1518_2807"/>
<feBlend mode="normal" in="SourceGraphic" in2="effect1_backgroundBlur_1518_2807" result="shape"/>
</filter>
</defs>
</svg>
