<svg width="79" height="94" viewBox="0 0 79 94" fill="none" xmlns="http://www.w3.org/2000/svg">
<path d="M7.77832 25.792L9.73542 48.3226C9.73542 48.3226 11.6925 53.2153 12.6711 62.0223C13.6496 70.8292 14.6282 91.4027 14.6282 91.4027L19.5209 93.3598H29.3065H39.092L43.9847 91.4027C43.9847 91.4027 45.727 70.8054 46.8488 61.8791C47.6125 55.6975 48.8775 49.3011 48.8775 49.3011L51.8132 25.792" stroke="#979797" stroke-linecap="round" stroke-linejoin="round"/>
<path d="M10.3081 50.1841C10.3081 50.1841 11.2389 48.8236 12.7187 48.7043C14.461 48.5611 16.0601 49.3726 16.2033 51.2581C16.4181 54.0505 19.5447 93.0733 19.5447 93.0733" stroke="#979797" stroke-linecap="round" stroke-linejoin="round"/>
<path d="M48.4001 51.0193C48.4001 51.0193 47.159 48.8474 45.6793 48.7281C43.9131 48.5849 42.2901 49.3964 42.1469 51.2819C41.9321 54.0743 38.7578 93.0971 38.7578 93.0971" stroke="#979797" stroke-linecap="round" stroke-linejoin="round"/>
<path d="M29.5928 51.0194L29.8553 93.1449" stroke="#979797" stroke-linecap="round" stroke-linejoin="round"/>
<path d="M7.77832 25.8397C7.89766 26.1022 10.9765 29.9925 10.8572 32.9282C10.714 35.8639 12.146 48.8237 12.146 48.8237C12.146 48.8237 14.3418 55.7929 15.5351 69.5881C16.4182 79.851 16.4182 82.357 16.4182 82.357C16.4182 82.357 17.54 87.1543 29.8554 87.1543C42.1708 87.1543 42.1708 82.1422 42.1708 82.1422C42.1708 82.1422 42.8391 72.7863 43.5074 67.0343C44.1757 61.2823 47.1591 49.2533 47.1591 49.2533C47.1591 49.2533 48.1854 32.1167 48.5911 30.3744C48.9968 28.6321 51.8132 25.8158 51.8132 25.8158" stroke="#979797" stroke-width="0.5" stroke-linecap="round" stroke-linejoin="round"/>
<path d="M29.7121 29.1811C41.9049 29.1811 51.7892 27.6851 51.7892 25.8397C51.7892 23.9943 41.9049 22.4983 29.7121 22.4983C17.5193 22.4983 7.63501 23.9943 7.63501 25.8397C7.63501 27.6851 17.5193 29.1811 29.7121 29.1811Z" stroke="#979797" stroke-linecap="round" stroke-linejoin="round"/>
<path d="M29.7121 30.5176C41.9049 30.5176 51.7892 29.0216 51.7892 27.1762C51.7892 25.3308 41.9049 23.8348 29.7121 23.8348C17.5193 23.8348 7.63501 25.3308 7.63501 27.1762C7.63501 29.0216 17.5193 30.5176 29.7121 30.5176Z" stroke="#979797" stroke-width="0.5" stroke-linecap="round" stroke-linejoin="round"/>
<path d="M16.3228 50.184C16.3228 50.184 18.1844 48.5849 22.4805 48.7042C26.7527 48.8474 29.7122 50.7091 29.7122 50.7091" stroke="#979797" stroke-linecap="round" stroke-linejoin="round"/>
<path d="M29.5928 51.0194C29.5928 51.0194 31.1919 48.6088 35.4641 48.7282C39.7363 48.8714 42.123 50.3989 42.123 50.3989" stroke="#979797" stroke-linecap="round" stroke-linejoin="round"/>
<path d="M76.4203 73.908C76.4203 73.908 77.5421 74.099 76.7783 75.1491C75.9191 76.3425 75.4657 77.154 74.2246 77.1062C73.3176 77.0585 68.4965 76.4618 68.4965 76.4618C68.4965 76.4618 65.6324 75.9368 65.5131 79.2304C65.3937 82.5241 66.5871 82.9776 68.6397 83.4788C70.6684 83.98 73.962 84.0993 74.3678 84.1232C74.7735 84.147 77.3512 81.3546 77.3512 81.3546L77.6376 73.9558C77.6614 73.9558 77.2557 73.5262 76.4203 73.908Z" stroke="#979797" stroke-linecap="round" stroke-linejoin="round"/>
<path d="M68.7828 81.8319C69.6923 81.8319 70.4296 81.0946 70.4296 80.185C70.4296 79.2755 69.6923 78.5382 68.7828 78.5382C67.8733 78.5382 67.136 79.2755 67.136 80.185C67.136 81.0946 67.8733 81.8319 68.7828 81.8319Z" stroke="#979797" stroke-linecap="round" stroke-linejoin="round"/>
<path d="M69.0213 81.8319C69.9309 81.8319 70.6682 81.0946 70.6682 80.185C70.6682 79.2755 69.9309 78.5382 69.0213 78.5382C68.1118 78.5382 67.3745 79.2755 67.3745 80.185C67.3745 81.0946 68.1118 81.8319 69.0213 81.8319Z" stroke="#979797" stroke-width="0.5" stroke-linecap="round" stroke-linejoin="round"/>
<path d="M76.4203 73.908C76.4203 73.908 75.036 76.1037 74.2006 76.0799C73.5323 76.056 70.6205 75.8651 69.3795 75.7219C69.0931 75.6741 68.7828 75.7219 68.5202 75.8651L66.3245 77.0346" stroke="#979797" stroke-width="0.5" stroke-linecap="round" stroke-linejoin="round"/>
<path d="M46.7773 61.0436L68.568 64.9578C68.568 64.9578 72.6732 65.1249 72.888 70.0654C73.1028 75.0058 73.0789 75.8412 73.0789 75.8412" stroke="#979797" stroke-linecap="round" stroke-linejoin="round"/>
<path d="M72.4106 84.0277C72.4106 84.0277 71.7423 88.5147 71.6469 90.5912C71.5753 92.6437 67.8281 93.312 65.3937 92.8108C62.9354 92.3096 44.3906 88.0135 44.3906 88.0135" stroke="#979797" stroke-linecap="round" stroke-linejoin="round"/>
<path d="M63.9617 60.8049L67.5179 61.33C67.5179 61.33 74.4155 62.3086 75.9191 66.0796C77.4227 69.8506 76.4442 73.5022 76.4442 73.5022" stroke="#979797" stroke-linecap="round" stroke-linejoin="round"/>
<path d="M76.0622 82.9536C76.0622 82.9536 75.8713 87.4645 75.4417 88.276C74.9882 89.0875 71.6707 90.0183 71.6707 90.0183" stroke="#979797" stroke-linecap="round" stroke-linejoin="round"/>
<path d="M65.871 55.6733C65.871 59.3011 63.1501 61.9981 59.7848 61.9981C56.4196 61.9981 53.6987 58.8238 53.6987 55.196C53.6987 51.5682 56.4196 48.8712 59.7848 48.8712C63.1262 48.8712 65.871 52.0455 65.871 55.6733Z" stroke="#979797" stroke-linecap="round" stroke-linejoin="round"/>
<path d="M63.174 61.1152C65.4414 60.2321 67.0405 57.9886 67.0405 55.1962C67.0405 51.5684 64.3197 48.394 60.9544 48.394L57.3027 49.3965" stroke="#979797" stroke-linecap="round" stroke-linejoin="round"/>
<path d="M54.7251 58.9432C54.6296 58.8955 47.4695 57.9408 47.4695 57.9408" stroke="#979797" stroke-linecap="round" stroke-linejoin="round"/>
<path d="M57.7561 59.1341V52.4513L61.0259 52.7854C61.742 52.857 62.2909 53.4776 62.2909 54.1936C62.2909 55.0289 61.551 55.6972 60.7157 55.6018L56.0854 55.0767" stroke="#979797" stroke-linecap="round" stroke-linejoin="round"/>
<path d="M56.0854 56.5088L61.3362 57.2248" stroke="#979797" stroke-linecap="round" stroke-linejoin="round"/>
<path d="M76.6727 36.7451C76.6727 40.3729 73.9519 43.0699 70.5866 43.0699C67.2213 43.0699 64.5005 39.8956 64.5005 36.2678C64.5005 32.64 67.2213 29.943 70.5866 29.943C73.928 29.943 76.6727 33.1173 76.6727 36.7451Z" stroke="#979797" stroke-linecap="round" stroke-linejoin="round"/>
<path d="M73.9758 42.1868C76.2432 41.3037 77.8423 39.0602 77.8423 36.2677C77.8423 32.6399 75.1214 29.4656 71.7562 29.4656L68.1045 30.468" stroke="#979797" stroke-linecap="round" stroke-linejoin="round"/>
<path d="M68.5579 40.206V33.5232L71.8277 33.8573C72.5437 33.9289 73.0927 34.5495 73.0927 35.2655C73.0927 36.1008 72.3528 36.7691 71.5174 36.6737L66.8872 36.1486" stroke="#979797" stroke-linecap="round" stroke-linejoin="round"/>
<path d="M66.8872 37.5804L72.138 38.2965" stroke="#979797" stroke-linecap="round" stroke-linejoin="round"/>
<path d="M64.6295 8.27942C64.6295 11.9072 61.9087 14.6042 58.5434 14.6042C55.1781 14.6042 52.4573 11.4299 52.4573 7.80208C52.4573 4.17428 55.1781 1.47729 58.5434 1.47729C61.8848 1.47729 64.6295 4.65162 64.6295 8.27942Z" stroke="#979797" stroke-linecap="round" stroke-linejoin="round"/>
<path d="M61.9326 13.7212C64.2 12.8381 65.7991 10.5946 65.7991 7.80213C65.7991 4.17433 63.0782 1 59.7129 1L56.0613 2.00242" stroke="#979797" stroke-linecap="round" stroke-linejoin="round"/>
<path d="M56.5147 11.7402V5.05737L59.7845 5.39151C60.5005 5.46311 61.0494 6.08366 61.0494 6.79967C61.0494 7.63502 60.3096 8.3033 59.4742 8.20783L54.844 7.68276" stroke="#979797" stroke-linecap="round" stroke-linejoin="round"/>
<path d="M54.844 9.11487L60.0948 9.83088" stroke="#979797" stroke-linecap="round" stroke-linejoin="round"/>
<path d="M39.3784 59.4923L38.6624 86.8202L44.1518 88.0135" stroke="#979797" stroke-width="0.5" stroke-linecap="round" stroke-linejoin="round"/>
<path d="M46.7771 61.0437L39.3306 59.4685L41.9082 58.0603L42.9584 57.4636L47.0158 57.941" stroke="#979797" stroke-width="0.5" stroke-linecap="round" stroke-linejoin="round"/>
<path d="M1 37.0953C2.04264 36.4679 3.78037 34.4412 8.64601 34.4412C13.5117 34.4412 14.9018 37.0953 19.7675 37.0953C23.938 37.0953 24.2856 34.4413 30.1939 34.4413" stroke="#03ABE0" stroke-width="2"/>
<path d="M1 44.0571C2.04264 43.4297 3.78037 41.403 8.64601 41.403C13.5117 41.403 14.9018 44.0571 19.7675 44.0571C23.938 44.0571 24.2856 41.4031 30.1939 41.4031" stroke="#03ABE0" stroke-width="2"/>
</svg>
