<svg width="38" height="36" viewBox="0 0 38 36" fill="none" xmlns="http://www.w3.org/2000/svg">
<path d="M8.58179 29.7147V34.0017H36.8334V3.50757" stroke="#979797" stroke-linecap="round" stroke-linejoin="round"/>
<path d="M9.37964 33.7588V34.8104H37.6313V3.83093H36.8332" stroke="#979797" stroke-width="0.5" stroke-linecap="round" stroke-linejoin="round"/>
<path d="M8.58166 3.50757H36.8333L36.7535 5.36795C36.4343 12.2433 34.5189 18.8759 31.167 24.8615L29.3315 28.097H1L1.95768 26.4792C5.94803 19.523 8.18262 11.5962 8.58166 3.50757Z" stroke="#979797" stroke-linecap="round" stroke-linejoin="round"/>
<path d="M36.8333 3.50757V5.61061C36.5141 12.7286 34.918 19.7657 31.5661 25.913L29.7305 29.3103H1.71826L1.95768 28.9058" stroke="#979797" stroke-width="0.5" stroke-linecap="round" stroke-linejoin="round"/>
<path d="M25.5007 9.65491H23.1863H17.0412L15.7643 12.1624H21.67L19.196 17.3391L16.6421 17.2582L15.445 19.7657H17.8392L15.3652 24.2144H18.2383L20.4729 19.8466H22.9469L24.2238 17.2582H21.67L25.5007 9.65491Z" fill="#03ABE0"/>
<path d="M13.9286 5.44899C14.168 5.20633 14.4872 5.04456 14.8862 5.04456C15.6843 5.04456 16.3228 5.69165 16.3228 6.50051C16.3228 7.30937 15.6843 7.95646 14.8862 7.95646C14.0882 7.95646 13.4497 7.30937 13.4497 6.50051C13.4497 6.33874 13.4497 6.09608 13.5295 5.93431" stroke="#979797" stroke-width="0.5" stroke-linecap="round" stroke-linejoin="round"/>
<path d="M14.0883 5.77252C14.3277 5.52986 14.5671 5.44897 14.8863 5.44897C15.5248 5.44897 16.0036 5.93429 16.0036 6.58138C16.0036 7.22847 15.5248 7.71379 14.8863 7.71379C14.2479 7.71379 13.769 7.22847 13.769 6.58138C13.769 6.5005 13.769 6.41961 13.769 6.33873" stroke="#979797" stroke-width="0.5" stroke-linecap="round" stroke-linejoin="round"/>
<path d="M15.0459 6.98558C13.9286 6.98558 12.9709 5.61052 12.9709 3.99279C12.9709 2.37507 13.9286 1 15.0459 1C16.0834 1 16.9613 2.05153 17.1209 3.50748" stroke="#979797" stroke-width="0.5" stroke-linecap="round" stroke-linejoin="round"/>
<path d="M15.1257 6.33852C14.7267 6.33852 14.3276 6.09586 14.0882 5.69143C13.769 5.20611 13.6094 4.55903 13.6094 3.91194C13.6094 2.53687 14.3276 1.48535 15.2055 1.48535C16.0036 1.48535 16.642 2.3751 16.7218 3.50751" stroke="#979797" stroke-width="0.5" stroke-linecap="round" stroke-linejoin="round"/>
<path d="M15.1257 6.98559C15.2853 6.98559 15.445 6.82381 15.445 6.66204C15.445 6.50027 15.2853 6.3385 15.1257 6.3385" stroke="#979797" stroke-width="0.5" stroke-linecap="round" stroke-linejoin="round"/>
<path d="M28.8526 5.44899C29.092 5.20633 29.4113 5.04456 29.8103 5.04456C30.6084 5.04456 31.2468 5.69165 31.2468 6.50051C31.2468 7.30937 30.6084 7.95646 29.8103 7.95646C29.0122 7.95646 28.3738 7.30937 28.3738 6.50051C28.3738 6.33874 28.3738 6.09608 28.4536 5.93431" stroke="#979797" stroke-width="0.5" stroke-linecap="round" stroke-linejoin="round"/>
<path d="M28.9325 5.77252C29.1719 5.52986 29.4114 5.44897 29.7306 5.44897C30.369 5.44897 30.8479 5.93429 30.8479 6.58138C30.8479 7.22847 30.369 7.71379 29.7306 7.71379C29.0921 7.71379 28.6133 7.22847 28.6133 6.58138C28.6133 6.5005 28.6133 6.41961 28.6133 6.33873" stroke="#979797" stroke-width="0.5" stroke-linecap="round" stroke-linejoin="round"/>
<path d="M29.97 6.98558C28.8527 6.98558 27.895 5.61052 27.895 3.99279C27.895 2.37507 28.8527 1 29.97 1C31.0075 1 31.8854 2.05153 32.045 3.50748" stroke="#979797" stroke-width="0.5" stroke-linecap="round" stroke-linejoin="round"/>
<path d="M30.0498 6.33852C29.6507 6.33852 29.2517 6.09586 29.0123 5.69143C28.6931 5.20611 28.5334 4.55903 28.5334 3.91194C28.5334 2.53687 29.2517 1.48535 30.1296 1.48535C30.9277 1.48535 31.5661 2.3751 31.6459 3.50751" stroke="#979797" stroke-width="0.5" stroke-linecap="round" stroke-linejoin="round"/>
<path d="M30.0498 6.98559C30.2094 6.98559 30.369 6.82381 30.369 6.66204C30.369 6.50027 30.2094 6.3385 30.0498 6.3385" stroke="#979797" stroke-width="0.5" stroke-linecap="round" stroke-linejoin="round"/>
</svg>
